<svg width="1280" height="720" viewBox="0 0 1280 720" fill="none" xmlns="http://www.w3.org/2000/svg">
<path d="M742.018 509.083V503.58C742.018 500.436 739.464 497.684 736.124 497.684H735.927C733.373 497.684 731.212 496.112 730.427 493.754C730.034 492.771 729.641 491.985 729.248 491.199C728.266 488.841 728.658 486.286 730.427 484.517L730.623 484.321C732.981 481.962 732.981 478.229 730.623 476.067L726.694 472.136C724.336 469.778 720.604 469.778 718.443 472.136L718.246 472.333C716.478 474.102 713.728 474.495 711.567 473.512C710.781 473.119 709.799 472.726 709.013 472.333C706.655 471.547 705.084 469.385 705.084 466.83V466.634C705.084 463.489 702.53 460.738 699.19 460.738H693.689C690.546 460.738 687.795 463.293 687.795 466.634V466.83C687.795 469.385 686.224 471.547 683.866 472.333C682.884 472.726 682.098 473.119 681.312 473.512C678.955 474.495 676.401 474.102 674.633 472.333L674.436 472.136C672.079 469.778 668.346 469.778 666.185 472.136L662.256 476.067C659.898 478.425 659.898 482.159 662.256 484.321L662.452 484.517C664.22 486.286 664.613 489.037 663.631 491.199C663.238 491.985 662.845 492.968 662.452 493.754C661.666 496.112 659.505 497.684 656.951 497.684H656.755C653.611 497.684 650.861 500.239 650.861 503.58V509.083C650.861 512.227 653.415 514.979 656.755 514.979H656.951C659.505 514.979 661.666 516.551 662.452 518.909C662.845 519.892 663.238 520.678 663.631 521.464C664.613 523.822 664.22 526.377 662.452 528.146V528.342C660.095 530.7 660.095 534.434 662.452 536.596L666.381 540.527C668.739 542.885 672.471 542.885 674.633 540.527L674.829 540.33C676.597 538.561 679.348 538.168 681.509 539.151C682.294 539.544 683.277 539.937 684.063 540.33C686.42 541.116 687.992 543.278 687.992 545.833V546.029C687.992 549.174 690.546 551.925 693.885 551.925H699.386C702.53 551.925 705.28 549.37 705.28 546.029V545.833C705.28 543.278 706.852 541.116 709.209 540.33C710.191 539.937 710.977 539.544 711.763 539.151C714.121 538.168 716.675 538.561 718.443 540.33L718.639 540.527C720.997 542.885 724.729 542.885 726.89 540.527L730.82 536.596C733.177 534.238 733.177 530.504 730.82 528.342L730.623 528.146C728.855 526.377 728.462 523.626 729.444 521.464C729.837 520.678 730.23 519.695 730.623 518.909C731.409 516.551 733.57 514.979 736.124 514.979H736.32C739.267 514.979 742.018 512.424 742.018 509.083Z" stroke="white" stroke-width="1.44807" stroke-miterlimit="10"/>
<path d="M696.439 529.914C709.459 529.914 720.014 519.356 720.014 506.331C720.014 493.307 709.459 482.749 696.439 482.749C683.419 482.749 672.864 493.307 672.864 506.331C672.864 519.356 683.419 529.914 696.439 529.914Z" stroke="white" stroke-width="1.44807" stroke-miterlimit="10"/>
<path d="M654.987 456.218L655.576 452.484C655.969 450.322 654.201 448.16 652.04 447.964H651.844C650.075 447.767 648.7 446.392 648.307 444.82C648.111 444.23 647.914 443.444 647.718 442.854C647.129 441.282 647.718 439.317 649.093 438.334H649.29C651.058 436.959 651.451 434.404 650.075 432.635L647.718 429.687C646.343 427.918 643.789 427.525 642.021 428.901H641.824C640.449 429.884 638.484 430.08 637.109 429.098C636.52 428.705 635.93 428.508 635.341 428.115C633.769 427.329 632.984 425.56 633.18 423.988V423.791C633.573 421.63 631.805 419.468 629.644 419.271L625.911 418.289C623.75 417.896 621.589 419.664 621.393 421.826V422.023C621.196 423.791 619.821 425.167 618.249 425.56C617.66 425.757 616.874 425.953 616.285 426.15C614.713 426.739 612.748 426.15 611.766 424.774V424.578C610.391 422.809 607.837 422.416 606.069 423.791L602.729 425.953C600.961 427.329 600.568 430.08 601.943 431.849V432.045C602.925 433.421 603.122 435.386 602.14 436.762C601.747 437.352 601.55 437.941 601.157 438.531C600.372 440.103 598.603 440.889 597.032 440.692H596.835C594.674 440.299 592.513 442.068 592.317 444.23L591.727 447.964C591.334 450.126 593.103 452.287 595.264 452.484H595.46C597.228 452.68 598.603 454.056 598.996 455.628C599.193 456.218 599.389 457.004 599.586 457.594C600.175 459.166 599.586 461.131 598.21 462.114H598.014C596.246 463.489 595.853 466.044 597.228 467.813L599.586 470.761C600.961 472.529 603.515 472.922 605.283 471.547H605.479C606.855 470.564 608.819 470.368 610.194 471.35C610.784 471.743 611.373 471.94 611.963 472.333C613.534 473.119 614.32 474.888 614.124 476.46V476.656C613.731 479.211 615.302 481.176 617.463 481.569L621.196 482.159C623.357 482.552 625.518 480.783 625.715 478.622V478.425C625.911 476.656 627.286 475.281 628.858 474.888C629.447 474.691 630.233 474.495 630.823 474.298C632.394 473.709 634.359 474.298 635.341 475.674V475.87C636.716 477.639 639.27 478.032 641.038 476.656L643.985 474.298C645.753 472.922 646.146 470.368 644.771 468.599V468.402C643.789 467.027 643.592 465.061 644.575 463.686C644.967 463.096 645.164 462.507 645.557 461.917C646.343 460.345 648.111 459.559 649.682 459.755H649.879C652.629 460.148 654.594 458.576 654.987 456.218Z" stroke="white" stroke-width="1.44807" stroke-miterlimit="10"/>
<path d="M639.739 453.422C641.49 444.474 635.658 435.801 626.714 434.049C617.769 432.298 609.099 438.132 607.348 447.079C605.597 456.027 611.429 464.7 620.373 466.451C629.318 468.203 637.988 462.369 639.739 453.422Z" stroke="white" stroke-width="1.44807" stroke-miterlimit="10"/>
<g clip-path="url(#clip0_12_401)">
<path d="M1358.41 644.742V635.353C1358.41 629.784 1353.95 625.328 1348.38 625.328H1348.07C1343.77 625.328 1340.11 622.623 1338.52 618.645C1337.88 617.053 1337.4 615.621 1336.61 614.189C1334.86 610.37 1335.49 605.755 1338.52 602.732L1338.84 602.414C1342.81 598.435 1342.81 592.07 1338.84 588.251L1332.15 581.568C1328.17 577.589 1321.81 577.589 1317.99 581.568L1317.67 581.886C1314.65 584.909 1310.03 585.546 1306.21 583.796C1304.78 583.159 1303.19 582.522 1301.76 581.886C1297.78 580.454 1295.08 576.635 1295.08 572.338V572.02C1295.08 566.45 1290.62 561.995 1285.05 561.995H1275.66C1270.09 561.995 1265.64 566.45 1265.64 572.02V572.338C1265.64 576.635 1262.93 580.295 1258.95 581.886C1257.36 582.522 1255.93 583 1254.5 583.796C1250.68 585.546 1246.06 584.909 1243.04 581.886L1242.72 581.568C1238.74 577.589 1232.38 577.589 1228.56 581.568L1221.88 588.251C1217.9 592.229 1217.9 598.594 1221.88 602.414L1222.19 602.732C1225.22 605.755 1225.85 610.37 1224.1 614.189C1223.47 615.621 1222.83 617.213 1222.19 618.645C1220.76 622.623 1216.94 625.328 1212.65 625.328H1212.33C1206.76 625.328 1202.3 629.784 1202.3 635.353V644.742C1202.3 650.311 1206.76 654.767 1212.33 654.767H1212.65C1216.94 654.767 1220.6 657.472 1222.19 661.45C1222.83 663.042 1223.31 664.474 1224.1 665.906C1225.85 669.725 1225.22 674.34 1222.19 677.363L1221.88 677.681C1217.9 681.66 1217.9 688.025 1221.88 691.844L1228.56 698.527C1232.54 702.506 1238.9 702.506 1242.72 698.527L1243.04 698.209C1246.06 695.186 1250.68 694.549 1254.5 696.299C1255.93 696.936 1257.52 697.573 1258.95 698.209C1262.93 699.641 1265.64 703.46 1265.64 707.757V708.075C1265.64 713.645 1270.09 718.1 1275.66 718.1H1285.05C1290.62 718.1 1295.08 713.645 1295.08 708.075V707.757C1295.08 703.46 1297.78 699.8 1301.76 698.209C1303.35 697.573 1304.78 697.095 1306.21 696.299C1310.03 694.549 1314.65 695.186 1317.67 698.209L1317.99 698.527C1321.97 702.506 1328.33 702.506 1332.15 698.527L1338.84 691.844C1342.81 687.866 1342.81 681.501 1338.84 677.681L1338.52 677.363C1335.49 674.34 1334.86 669.725 1336.61 665.906C1337.24 664.474 1337.88 662.882 1338.52 661.45C1339.95 657.472 1343.77 654.767 1348.07 654.767H1348.38C1353.95 654.767 1358.41 650.311 1358.41 644.742Z" stroke="white" stroke-width="1.44807" stroke-miterlimit="10"/>
<path d="M1309.15 668.775C1324.99 652.928 1324.99 627.236 1309.15 611.39C1293.3 595.543 1267.61 595.543 1251.76 611.39C1235.91 627.236 1235.91 652.928 1251.76 668.775C1267.61 684.621 1293.3 684.621 1309.15 668.775Z" stroke="white" stroke-width="1.44807" stroke-miterlimit="10"/>
</g>
<path d="M1269.43 40.2823C1269.2 32.6862 1262.74 26.7014 1255.13 26.7014C1237.61 26.7014 1224.7 26.7014 1215.7 26.7014C1208.09 26.7014 1201.41 20.9468 1200.71 13.3507C1200.02 7.59609 1197.72 2.07166 1191.49 2.07166H1111.01C1103.4 2.07166 1096.94 7.82627 1096.94 15.4224C1096.71 23.0185 1102.94 29.2335 1110.55 29.2335C1111.24 29.2335 1112.62 29.2335 1114.01 29.2335C1114.93 29.2335 1116.08 29.2335 1117.01 29.6938C1123 31.5353 1126.23 37.7503 1124.39 43.5049C1123 48.1086 1118.39 51.101 1113.55 51.101C1106.4 51.101 1098.33 51.101 1098.33 51.101C1091.18 51.101 1084.95 56.6254 1084.95 63.7612C1084.95 71.1271 1090.72 76.8817 1097.87 76.8817H1235.53C1244.76 76.8817 1250.06 68.8252 1248.91 61.4593C1248.22 57.316 1251.21 53.633 1255.13 53.633C1255.37 53.633 1255.6 53.633 1255.6 53.633C1263.44 54.3236 1269.66 48.1086 1269.43 40.2823Z" stroke="white" stroke-width="1.44807" stroke-miterlimit="10"/>
<path d="M1061.66 28.3128H1045.06C1037.91 28.3128 1032.15 22.328 1032.15 15.1922C1032.15 8.0565 1037.91 2.30188 1045.06 2.30188H1061.66C1068.81 2.30188 1074.58 8.0565 1074.58 15.1922C1074.58 22.328 1068.81 28.3128 1061.66 28.3128Z" stroke="white" stroke-width="1.44807" stroke-miterlimit="10"/>
<g clip-path="url(#clip1_12_401)">
<path d="M138.13 600.88C138.315 608.477 144.736 614.5 152.346 614.546C169.871 614.65 182.784 614.726 191.778 614.78C199.387 614.825 206.04 620.619 206.687 628.219C207.345 633.978 209.618 639.516 215.844 639.553L296.321 640.03C303.931 640.076 310.422 634.359 310.467 626.763C310.742 619.169 304.553 612.917 296.944 612.872C296.252 612.868 294.868 612.859 293.485 612.851C292.562 612.846 291.409 612.839 290.49 612.373C284.505 610.496 281.314 604.262 283.193 598.518C284.604 593.923 289.233 590.958 294.076 590.987C301.224 591.029 309.295 591.077 309.295 591.077C316.443 591.12 322.702 585.632 322.745 578.497C322.788 571.131 317.058 565.342 309.909 565.3L172.244 564.483C163.021 564.428 157.669 572.453 158.778 579.825C159.445 583.973 156.426 587.638 152.506 587.614C152.275 587.613 152.045 587.612 152.045 587.612C144.208 586.875 137.946 593.053 138.13 600.88Z" stroke="white" stroke-width="1.44807" stroke-miterlimit="10"/>
<path d="M86.5541 587.453L101.082 587.539C107.769 587.579 113.104 582.316 113.144 575.641C113.183 568.966 107.911 563.64 101.224 563.601L86.6962 563.514C80.009 563.475 74.6739 568.737 74.6343 575.413C74.5947 582.088 80.0975 587.415 86.5541 587.453Z" stroke="white" stroke-width="1.44807" stroke-miterlimit="10"/>
<path d="M345.824 614.083L362.427 614.181C369.575 614.224 375.305 620.242 375.262 627.378C375.22 634.514 369.421 640.234 362.273 640.192L345.67 640.093C338.521 640.051 332.791 634.262 332.833 627.126C332.875 619.991 338.676 614.04 345.824 614.083Z" stroke="white" stroke-width="1.44807" stroke-miterlimit="10"/>
</g>
<path d="M-80.4787 169.676C-76.9505 169.676 -74.5983 166.152 -75.7744 162.863C-76.7153 159.809 -77.1857 156.755 -76.4801 153.231C-74.8336 143.833 -66.3658 137.02 -56.722 137.02H49.3598C59.2389 137.02 67.7066 143.833 69.3531 153.466C71.2348 165.682 61.8262 176.255 50.0655 176.255H48.8894C40.8921 176.255 34.7765 182.833 34.7765 190.821C34.7765 190.821 34.7765 190.821 34.7765 191.056C34.7765 202.803 25.3679 212.2 13.6072 212.2H-80.4787C-92.2395 212.2 -101.648 202.803 -101.648 191.056C-101.648 179.074 -92.2395 169.676 -80.4787 169.676Z" stroke="white" stroke-width="1.44807" stroke-miterlimit="10"/>
<defs>
<clipPath id="clip0_12_401">
<rect width="159.288" height="159.288" fill="white" transform="translate(1200.71 560.404)"/>
</clipPath>
<clipPath id="clip1_12_401">
<rect width="305.543" height="79.6439" fill="white" transform="translate(377.478 642.584) rotate(-179.66)"/>
</clipPath>
</defs>
</svg>
